<svg width="600" height="300" viewBox="0 0 600 300" fill="none" xmlns="http://www.w3.org/2000/svg">
<g clip-path="url(#clip0_0_1)">
<circle cx="139.5" cy="152.5" r="113.5" stroke="black" stroke-width="12"/>
<circle cx="139.5" cy="152.5" r="101.5" stroke="black" stroke-opacity="0.71" stroke-width="12"/>
<circle cx="139.5" cy="152.5" r="89.5" stroke="black" stroke-opacity="0.53" stroke-width="12"/>
<circle cx="139.5" cy="152.5" r="77.5" stroke="black" stroke-opacity="0.37" stroke-width="12"/>
<circle cx="139.5" cy="152.5" r="65.5" stroke="black" stroke-opacity="0.21" stroke-width="12"/>
<circle cx="139.5" cy="152.5" r="53.5" stroke="black" stroke-opacity="0.08" stroke-width="12"/>
<path d="M346.816 264L342.598 247.945H314.766L310.43 264H285L312.949 177.984H343.828L372.129 264H346.816ZM337.793 228.961L334.102 214.898C333.711 213.375 333.145 211.207 332.402 208.395C331.66 205.543 330.918 202.613 330.176 199.605C329.473 196.559 328.926 194.059 328.535 192.105C328.184 194.059 327.676 196.48 327.012 199.371C326.387 202.223 325.723 205.055 325.02 207.867C324.355 210.68 323.77 213.023 323.262 214.898L319.57 228.961H337.793ZM444.668 197.613V264H427.383L424.512 255.738H423.164C421.797 257.965 420.059 259.781 417.949 261.188C415.879 262.555 413.574 263.551 411.035 264.176C408.496 264.84 405.859 265.172 403.125 265.172C398.789 265.172 394.863 264.332 391.348 262.652C387.871 260.973 385.098 258.336 383.027 254.742C380.996 251.148 379.98 246.52 379.98 240.855V197.613H402.891V233.883C402.891 238.18 403.496 241.461 404.707 243.727C405.957 245.953 407.988 247.066 410.801 247.066C413.691 247.066 415.918 246.285 417.48 244.723C419.082 243.16 420.195 240.855 420.82 237.809C421.445 234.762 421.758 231.051 421.758 226.676V197.613H444.668ZM493.008 247.066C495.078 247.066 496.973 246.852 498.691 246.422C500.41 245.992 502.207 245.445 504.082 244.781V261.48C501.582 262.574 498.926 263.453 496.113 264.117C493.34 264.82 489.785 265.172 485.449 265.172C481.152 265.172 477.363 264.508 474.082 263.18C470.801 261.812 468.242 259.469 466.406 256.148C464.609 252.789 463.711 248.121 463.711 242.145V214.781H455.684V205.465L465.879 198.258L471.797 184.312H486.797V197.613H503.086V214.781H486.797V240.621C486.797 242.77 487.344 244.391 488.438 245.484C489.531 246.539 491.055 247.066 493.008 247.066ZM579.082 230.66C579.082 236.207 578.32 241.129 576.797 245.426C575.273 249.723 573.066 253.336 570.176 256.266C567.285 259.195 563.789 261.422 559.688 262.945C555.586 264.43 550.957 265.172 545.801 265.172C540.996 265.172 536.582 264.43 532.559 262.945C528.574 261.422 525.098 259.195 522.129 256.266C519.16 253.336 516.855 249.723 515.215 245.426C513.613 241.129 512.812 236.207 512.812 230.66C512.812 223.316 514.141 217.105 516.797 212.027C519.492 206.949 523.32 203.082 528.281 200.426C533.281 197.77 539.238 196.441 546.152 196.441C552.52 196.441 558.184 197.77 563.145 200.426C568.105 203.082 571.992 206.949 574.805 212.027C577.656 217.105 579.082 223.316 579.082 230.66ZM536.074 230.66C536.074 234.449 536.406 237.652 537.07 240.27C537.734 242.848 538.789 244.82 540.234 246.188C541.719 247.516 543.652 248.18 546.035 248.18C548.418 248.18 550.312 247.516 551.719 246.188C553.125 244.82 554.141 242.848 554.766 240.27C555.43 237.652 555.762 234.449 555.762 230.66C555.762 226.871 555.43 223.707 554.766 221.168C554.141 218.629 553.105 216.715 551.66 215.426C550.254 214.137 548.34 213.492 545.918 213.492C542.441 213.492 539.922 214.938 538.359 217.828C536.836 220.719 536.074 224.996 536.074 230.66Z" fill="black"/>
<path d="M294.258 136V50.3359H317.402V117.309H350.391V136H294.258ZM426.152 102.66C426.152 108.207 425.391 113.129 423.867 117.426C422.344 121.723 420.137 125.336 417.246 128.266C414.355 131.195 410.859 133.422 406.758 134.945C402.656 136.43 398.027 137.172 392.871 137.172C388.066 137.172 383.652 136.43 379.629 134.945C375.645 133.422 372.168 131.195 369.199 128.266C366.23 125.336 363.926 121.723 362.285 117.426C360.684 113.129 359.883 108.207 359.883 102.66C359.883 95.3164 361.211 89.1055 363.867 84.0273C366.562 78.9492 370.391 75.082 375.352 72.4258C380.352 69.7695 386.309 68.4414 393.223 68.4414C399.59 68.4414 405.254 69.7695 410.215 72.4258C415.176 75.082 419.062 78.9492 421.875 84.0273C424.727 89.1055 426.152 95.3164 426.152 102.66ZM383.145 102.66C383.145 106.449 383.477 109.652 384.141 112.27C384.805 114.848 385.859 116.82 387.305 118.188C388.789 119.516 390.723 120.18 393.105 120.18C395.488 120.18 397.383 119.516 398.789 118.188C400.195 116.82 401.211 114.848 401.836 112.27C402.5 109.652 402.832 106.449 402.832 102.66C402.832 98.8711 402.5 95.707 401.836 93.168C401.211 90.6289 400.176 88.7148 398.73 87.4258C397.324 86.1367 395.41 85.4922 392.988 85.4922C389.512 85.4922 386.992 86.9375 385.43 89.8281C383.906 92.7188 383.145 96.9961 383.145 102.66ZM469.512 137.172C462.793 137.172 456.953 135.98 451.992 133.598C447.031 131.176 443.184 127.465 440.449 122.465C437.754 117.426 436.406 110.98 436.406 103.129C436.406 95.082 437.91 88.5 440.918 83.3828C443.965 78.2656 448.125 74.4961 453.398 72.0742C458.672 69.6523 464.648 68.4414 471.328 68.4414C475.391 68.4414 479.238 68.8906 482.871 69.7891C486.543 70.6875 489.941 71.918 493.066 73.4805L486.328 90.4141C483.594 89.2031 481.035 88.2461 478.652 87.543C476.309 86.8008 473.867 86.4297 471.328 86.4297C469.023 86.4297 466.992 87.0352 465.234 88.2461C463.477 89.457 462.109 91.293 461.133 93.7539C460.156 96.1758 459.668 99.2617 459.668 103.012C459.668 106.84 460.156 109.926 461.133 112.27C462.148 114.613 463.535 116.312 465.293 117.367C467.09 118.422 469.141 118.949 471.445 118.949C474.766 118.949 478.066 118.441 481.348 117.426C484.668 116.371 487.812 114.926 490.781 113.09V131.312C488.047 133.109 484.961 134.535 481.523 135.59C478.086 136.645 474.082 137.172 469.512 137.172Z" fill="black"/>
</g>
<defs>
<clipPath id="clip0_0_1">
<rect width="600" height="300" fill="white"/>
</clipPath>
</defs>
</svg>
